<svg xmlns="http://www.w3.org/2000/svg" xmlns:xlink="http://www.w3.org/1999/xlink" width="4744" height="1431" viewBox="0 0 4744 1431">
  <defs>
    <clipPath id="clip-Custom_Size_1">
      <rect width="4744" height="1431"/>
    </clipPath>
  </defs>
  <g id="Custom_Size_1" data-name="Custom Size – 1" clip-path="url(#clip-Custom_Size_1)">
    <g id="logo" transform="translate(0 0)">
      <path id="Path_9" data-name="Path 9" d="M1563.33,1106.53h98.76v-370.6l152.13,370.6h79.64l151.33-370.6v370.6h98.77V547.441H2022.89L1854.04,960.368,1685.19,547.441H1563.33Z" fill="#111"/>
      <path id="Path_10" data-name="Path 10" d="M2414.18,1112.92c121.86,0,209.47-87.86,209.47-207.662S2536.04,697.6,2414.18,697.6c-122.65,0-210.27,87.857-210.27,207.662S2291.53,1112.92,2414.18,1112.92Zm0-84.66c-66.9,0-111.5-50.321-111.5-123s44.6-123,111.5-123c66.11,0,110.71,50.318,110.71,123S2480.29,1028.26,2414.18,1028.26Z" fill="#111"/>
      <path id="Path_11" data-name="Path 11" d="M2862.6,1112.92c121.86,0,209.47-87.86,209.47-207.662S2984.46,697.6,2862.6,697.6c-122.66,0-210.27,87.857-210.27,207.662S2739.94,1112.92,2862.6,1112.92Zm0-84.66c-66.91,0-111.51-50.321-111.51-123s44.6-123,111.51-123c66.1,0,110.71,50.318,110.71,123S2928.7,1028.26,2862.6,1028.26Z" fill="#111"/>
      <path id="Path_12" data-name="Path 12" d="M3122.25,1106.53h97.97V886.888c0-59.1,38.23-102.234,93.18-102.234,50.18,0,83.63,38.338,83.63,93.448V1106.53H3495V857.336c0-94.247-58.94-159.74-149.74-159.74-57.34,0-102.74,24.76-125.04,68.688v-62.3h-97.97Z" fill="#111"/>
      <path id="Path_13" data-name="Path 13" d="M3576.34,1106.53h105.93V894.076h117.87c116.29,0,185.58-71.883,185.58-173.318s-69.29-173.317-185.58-173.317h-223.8Zm105.93-301.11V636.1h113.1c62.12,0,87.61,39.935,87.61,84.662s-25.49,84.662-87.61,84.662Z" fill="#111"/>
      <path id="Path_14" data-name="Path 14" d="M4173.8,697.6c-104.33,0-172.03,62.3-176.81,142.168h87.61c1.59-35.941,32.66-68.688,84.43-68.688s82.03,27.955,82.03,67.091c0,15.974-9.56,27.156-29.47,27.156h-74.07c-90,0-150.53,48.72-150.53,126.993,0,69.484,54.16,120.6,133.81,120.6,57.34,0,103.54-26.36,120.26-66.29v59.9h96.37V847.751C4347.43,756.7,4275.75,697.6,4173.8,697.6Zm-19.91,342.644c-36.63,0-62.12-20.77-62.12-51.918,0-35.142,27.88-58.3,69.29-58.3h90v6.39C4251.06,997.108,4215.22,1040.24,4153.89,1040.24Z" fill="#111"/>
      <path id="Path_15" data-name="Path 15" d="M4744,703.986H4643.65l-92.4,276.349-93.18-276.349h-99.56l146.55,402.544-56.55,162.93h93.19l62.12-182.1Z" fill="#111"/>
      <path id="Path_16" data-name="Path 16" d="M1161.51,848.616C1161.51,1170.26,901.5,1431,580.757,1431S0,1170.26,0,848.616,260.014,266.233,580.757,266.233,1161.51,526.975,1161.51,848.616Z" fill="#111"/>
      <path id="Path_17" data-name="Path 17" d="M1509.97,207.994c0,114.872-92.86,207.994-207.42,207.994s-207.41-93.122-207.41-207.994S1188,0,1302.55,0,1509.97,93.122,1509.97,207.994Z" fill="#111"/>
    </g>
  </g>
</svg>
